<svg xmlns="http://www.w3.org/2000/svg" version="1.1" xmlns:xlink="http://www.w3.org/1999/xlink" xmlns:svgjs="http://svgjs.dev/svgjs" width="2000" height="2242" viewBox="0 0 2000 2242"><g transform="matrix(1,0,0,1,-3.1151183800621993,0)"><svg viewBox="0 0 321 360" data-background-color="#dedede" preserveAspectRatio="xMidYMid meet" height="2242" width="2000" xmlns="http://www.w3.org/2000/svg" xmlns:xlink="http://www.w3.org/1999/xlink"><g id="tight-bounds" transform="matrix(1,0,0,1,0.5000234999999975,0)"><svg viewBox="0 0 320 360" height="360" width="320"><g><svg></svg></g><g><svg viewBox="0 0 320 360" height="360" width="320"><g><path transform="translate(-74.99272,-51.79039) scale(4.65793,4.65793)" d="M20.6 59.9l0.8 1-0.4-1.3c-0.1-0.6-0.8 0.1-0.4 0.3M21.5 59.3c0.3 0.5 0.6 1 0.6 1.5 0 0.7 0.6 1 1.1 1.2-0.7-0.8-1.1-3-1.7-2.7M59.9 16.9c1.7 0 3.3-0.2 5.1 0.2 4.4 1.1 8.1 3.3 10.6 6.4l7 11.2c0.3 2.8 0.9 5.9 0.8 9.3 0.7 0 0.6-1 1.4-1.2-0.8 2-1.2 4.5-1.4 7.4-0.5-1.6 0-4 0.1-5.3-0.7 1.1-1.1 0.3-1.1-0.2 0.1-0.8-0.3-0.7-0.6-1-1.1-1-1.8-2.1-2.6-3.8 0.5-1.3 0.6-3.2-1-4.2-0.5-0.3-1.1-0.8-1.4-1.6-0.4-1.1-1.1-2.4-0.9-4.1 0.1-0.5-1.5 1.1-2.4 0.4-3.9-2.7-7.8-5.8-12.5-8.4-2.5 0-4.3-0.9-5.2-2-0.8-1-0.2-2.3 1-2.4 0.7 0 1.5-0.2 2.1 0.2 0.1-0.4 0.5-0.9 1-0.9M50 14.6l0.2 0.1c1 0.2 1.5 1.6 2.6 1.1 0 0.7 0.1 1.4-0.1 1.9-0.3 0.8-1.2 0.8-1.9 0.8-6.7-0.4-10.6 2.4-14.7 4.8-1.1 0.7-2.3 1.2-3.2 2.1-4.3 4-9 7.7-10.1 15.1l-0.9 8.2c-0.1 0.9-1.1 1.8-0.9 2.9l0.7 4.9c-0.7-0.7-1.1 0.2-0.9 0.6 0.1 0.3 0.5 1.3 1.1 0.4 0.8 1.5 1.6 4.4 2.7 5.7 3.4 4 7.8 7.6 11.4 11.2 0.9-0.2 1.6-0.2 1.8-0.8 0.3 0.6-0.3 1.2-0.8 1.3 1.6 1 3.4 1.9 5.8 2.1 3.1 0.2 6 0.7 8.7 1.4 1.4-0.4 2.8-0.6 4.3-0.7 0.5 0 0.8-0.8 1.4-1l0.1-1c0.6 0.9 0.5-0.3 0.1-0.9 0.7 0.6 0.9 1.1 1.2 1.5 0-0.3 0.8-1.4 0.8-0.1l0.2-1.3c0.3-0.2 0.4 1.1 0.7 0.2 0.3-0.9 0.9-0.2 1.5-0.5-0.2 0.4-0.1 1.2 0.6 0.7l0.8-0.7c0.5 1.2 1.3 0.7 1.7 0.5 4.4-2.8 8.8-6.1 13-9.4l-0.1 1.3 0.5-1.6c0.5 0.5 0.9 0.1 1.1-0.2 0.6-1 1.4-2 2.7-2.9-1.6 4.3-3.5 7.7-5.9 10.5l-1 1.2c0 0.7-0.2 1.6-1 1.7-0.4 0.1-1.2-0.2-1.8 0.4-0.3 0.4 0.7 1.2-0.1 0.6-0.7-0.5-1.4 0-2.2 0.2-0.6 0.2 0.4 0.8 0.6 1.2 0.2 0.4 0.4 0.8 0.3 1.3l-1.1-1.2c-1.3 0.7-2.1 2-3.2 3-0.5 0.4-0.3 1.1-0.3 1.7-0.7 0-1.5-0.2-1.9 0.2-0.3 0.4-0.2 1-0.2 1.6-1-0.1-1.1-1.6-2-1.3-0.9 0.2-1.9 0.3-2.7 0.8 0.6 1.2-1 0.5-0.8 0.7-1.5-0.9-2.8-1.6-4.4-1-3.4-1.1-7.6-0.6-10.7-0.2 0-0.5 0.1-1-0.1-1.1-0.2 0.5-0.8 0.3-0.7 0.3-1.9-1.3-3.8-2.1-5.8-3.2-1.8 0.2-3.5-0.7-4-1.2-1.4-1.3-3-0.6-4.3-0.9-2.8-0.7-3.8-3.6-4.1-5.6-0.2-1-1-1.4-1.3-1.3-1.3-4.2-3.3-8-4.9-11.9-0.4-1-0.3-2-0.3-3.1 0.5 0.2 1 0.1 0.9-0.6-0.5-3.3-1.7-5.8-3-8.2 0.7-3.4 0.8-7.4 2.4-10.4 1.4-2.7 4-4.1 5.8-6.4 0.6-0.8 0.6-1.9 1.2-2.6 2-2 4-4.1 6.2-5.9 1-0.8 2.2 0 3.7-0.3 0.5-1.8 2.5-3.4 4.4-2.9 0.8 0.2 2.4-1.9 2.9-2.1 0.8-0.3 0.4 0.8 0.4 1.5 1.9-1.5 4.5-2.3 6.9-3.2" fill="#000000" fill-rule="nonzero" stroke="none" stroke-width="1" stroke-linecap="butt" stroke-linejoin="miter" stroke-miterlimit="10" stroke-dasharray="" stroke-dashoffset="0" font-family="none" font-weight="none" font-size="none" text-anchor="none" style="mix-blend-mode: normal" data-fill-palette-color="tertiary"></path></g><g transform="matrix(1,0,0,1,64,103.27791397128627)"><svg viewBox="0 0 192 153.44417205742747" height="153.44417205742747" width="192"><g><svg viewBox="0 0 192 153.44417205742747" height="153.44417205742747" width="192"><g><svg viewBox="0 0 192 153.44417205742747" height="153.44417205742747" width="192"><g transform="matrix(1,0,0,1,0,92.74449435452681)"><svg viewBox="0 0 192 60.69967770290067" height="60.69967770290067" width="192"><g id="textblocktransform"><svg viewBox="0 0 192 60.69967770290067" height="60.69967770290067" width="192" id="textblock"><g><svg viewBox="0 0 192 60.69967770290067" height="60.69967770290067" width="192"><g transform="matrix(1,0,0,1,0,0)"><svg width="192" viewBox="3.7 -40.8 170.64000000000001 53.949999999999996" height="60.69967770290067" data-palette-color="#374151"><path d="M6.55-11.55L8.15-3.45Q11.05-1.45 16.3-1.45L16.3-1.45Q19.85-1.45 21.63-3.5 23.4-5.55 23.4-8.4L23.4-8.4Q23.4-9.9 23.15-10.93 22.9-11.95 22.08-13.25 21.25-14.55 19.45-15.85 17.65-17.15 14.75-18.6L14.75-18.6Q11.35-20.3 9.25-21.8 7.15-23.3 6.1-24.9 5.05-26.5 4.7-27.95 4.35-29.4 4.35-31.55L4.35-31.55Q4.35-35.95 7.88-38.38 11.4-40.8 16.2-40.8L16.2-40.8Q22.15-40.8 27.7-37.8L27.7-37.8 27.7-28.2Q26-27.9 24.85-28.2L24.85-28.2 23.25-36.85Q20.05-38.6 16.1-38.6L16.1-38.6Q13.45-38.6 11.63-37.02 9.8-35.45 9.8-32.6L9.8-32.6Q9.8-31 10-30.1 10.2-29.2 11-27.98 11.8-26.75 13.65-25.53 15.5-24.3 18.6-22.8L18.6-22.8Q29.3-17.6 29.3-10.4L29.3-10.4Q29.3-5.3 25.4-2.15 21.5 1 15.2 1L15.2 1Q8.95 1 3.7-1.95L3.7-1.95 3.7-11.55Q5.4-11.85 6.55-11.55L6.55-11.55ZM39.4-6.65L39.4-6.65Q39.4-4.05 40.35-2.98 41.3-1.9 43.35-1.9L43.35-1.9Q44.85-1.9 46.67-2.83 48.5-3.75 50.05-5.5L50.05-5.5 50.05-13.3Q44.9-13 42.15-11.48 39.4-9.95 39.4-6.65ZM50.05-15.1L50.05-15.1 50.05-17.65Q50.05-21.9 49.07-23.83 48.1-25.75 45.85-25.75L45.85-25.75Q43.55-25.75 42.15-24.28 40.75-22.8 40.25-19.25L40.25-19.25Q38.65-18.9 37.9-18.9L37.9-18.9Q35.95-18.9 35.6-20.3L35.6-20.3Q35.6-23.7 38.55-25.7 41.5-27.7 45.9-27.7L45.9-27.7Q50.75-27.7 52.77-25.73 54.8-23.75 54.8-18.65L54.8-18.65 54.8-4.55Q54.8-3.3 54.95-2.4L54.95-2.4 58.9-1.9Q59.1-1.15 58.9 0L58.9 0Q55.35 0.15 51.35 0.7L51.35 0.7Q50.95 0.3 50.85-0.3L50.85-0.3 50.6-3.75Q46.45 1 41.35 1L41.35 1Q38.2 1 36.42-0.8 34.65-2.6 34.65-5.65L34.65-5.65Q34.65-10.25 38.82-12.6 43-14.95 50.05-15.1ZM64.45-8.7L64.45-32.45Q64.45-35.75 64.3-37.35L64.3-37.35 60.35-37.85Q60.15-38.6 60.35-39.75L60.35-39.75Q63.7-40 68.9-40.8L68.9-40.8Q69.34-40.3 69.4-39.8L69.4-39.8Q69.15-38.5 69.15-31.7L69.15-31.7 69.15-22.25Q72.84-27.35 78.05-27.35L78.05-27.35Q81.15-27.35 83.34-25.8 85.55-24.25 85.55-20.5L85.55-20.5 85.55-2.55 89.59-1.8Q89.8-1 89.59 0.2L89.59 0.2Q86.45 0.05 83.2 0.05L83.2 0.05Q80.9 0.05 76.7 0.15L76.7 0.15Q76.4-0.8 76.7-1.8L76.7-1.8 80.65-2.35Q80.84-5.1 80.84-8.7L80.84-8.7 80.84-18Q80.84-21.5 79.97-23.05 79.09-24.6 76.8-24.6L76.8-24.6Q74.9-24.6 72.82-23.2 70.75-21.8 69.15-19.15L69.15-19.15 69.15-2.55 73.2-1.8Q73.4-1 73.2 0.2L73.2 0.2Q70.05 0.05 66.8 0.05L66.8 0.05Q64.5 0.05 60.3 0.15L60.3 0.15Q60-0.8 60.3-1.8L60.3-1.8 64.25-2.35Q64.45-5.1 64.45-8.7L64.45-8.7ZM100.14 7.4L100.14 7.4 103.34-0.15 93.64-24.05 89.74-24.85Q89.49-25.85 89.74-26.85L89.74-26.85Q92.49-26.65 96.44-26.65L96.44-26.65Q99.99-26.65 103.19-26.8L103.19-26.8Q103.49-25.8 103.19-24.85L103.19-24.85 98.89-24.15 103.64-12.9Q104.64-10.45 105.74-6.05L105.74-6.05 105.84-6.05Q106.69-9.05 108.19-12.65L108.19-12.65 112.54-24.3 108.64-24.85Q108.44-25.65 108.64-26.85L108.64-26.85Q111.39-26.65 113.99-26.65L113.99-26.65Q116.19-26.65 119.44-26.8L119.44-26.8Q119.74-25.8 119.44-24.85L119.44-24.85 115.49-24.3 102.29 8Q101.24 10.5 99.94 11.75 98.64 13 96.49 13L96.49 13Q94.79 13 93.87 12.58 92.94 12.15 91.99 10.95L91.99 10.95Q92.29 8.2 94.84 6.55L94.84 6.55Q96.89 8.85 98.34 8.85L98.34 8.85Q99.59 8.85 100.14 7.4ZM120.74-13.3L120.74-13.3Q120.74-16.3 121.62-18.93 122.49-21.55 124.14-23.5 125.79-25.45 128.12-26.58 130.44-27.7 133.34-27.7L133.34-27.7Q136.19-27.7 138.54-26.58 140.89-25.45 142.57-23.5 144.24-21.55 145.14-18.93 146.04-16.3 146.04-13.3L146.04-13.3Q146.04-10.2 145.12-7.6 144.19-5 142.52-3.08 140.84-1.15 138.49-0.08 136.14 1 133.34 1L133.34 1Q130.39 1 128.07-0.05 125.74-1.1 124.12-3 122.49-4.9 121.62-7.53 120.74-10.15 120.74-13.3ZM128.04-22.5L128.04-22.5Q125.89-19.45 125.89-13.3L125.89-13.3Q125.89-10.25 126.47-7.95 127.04-5.65 128.04-4.13 129.04-2.6 130.39-1.85 131.74-1.1 133.34-1.1L133.34-1.1Q134.89-1.1 136.29-1.85 137.69-2.6 138.69-4.13 139.69-5.65 140.29-7.95 140.89-10.25 140.89-13.3L140.89-13.3Q140.89-16.35 140.29-18.68 139.69-21 138.67-22.53 137.64-24.05 136.27-24.83 134.89-25.6 133.34-25.6L133.34-25.6Q130.24-25.6 128.04-22.5ZM154.19 0.55L154.19 0.55Q154.64 0.75 154.94 1.4L154.94 1.4Q153.29 2.75 153.29 5.45L153.29 5.45Q153.29 7.85 155.49 9.3 157.69 10.75 161.19 10.75L161.19 10.75Q164.79 10.75 167.19 9.43 169.59 8.1 169.59 5.7L169.59 5.7Q169.59 3.1 168.64 1.88 167.69 0.65 164.84 0.4L164.84 0.4 155.49-0.45Q153.94-0.65 152.91-2.08 151.89-3.5 151.89-4.85L151.89-4.85 155.24-10.4Q152.94-11.7 151.76-13.85 150.59-16 150.59-18.25L150.59-18.25Q150.59-22.5 153.74-25.1 156.89-27.7 160.99-27.7L160.99-27.7Q164.94-27.7 167.94-25.6L167.94-25.6Q168.19-32.45 173.04-32.7L173.04-32.7Q174.34-32.4 174.34-30.55L174.34-30.55Q174.34-29.55 174.14-28.35L174.14-28.35Q172.19-28.2 170.94-27.08 169.69-25.95 169.14-24.5L169.14-24.5Q171.64-22 171.64-18.25L171.64-18.25Q171.64-14.3 168.44-11.68 165.24-9.05 160.99-9.05L160.99-9.05Q158.74-9.05 156.94-9.65L156.94-9.65 155.24-5.2 167.69-3.95Q170.59-3.6 172.11-1.83 173.64-0.05 173.64 2.8L173.64 2.8Q173.64 7.8 170.04 10.48 166.44 13.15 160.29 13.15L160.29 13.15Q155.19 13.15 152.34 11.3 149.49 9.45 149.49 6.35L149.49 6.35Q149.49 4.25 150.84 2.63 152.19 1 154.19 0.55ZM155.09-18.25L155.09-18.25Q155.09-15.35 156.71-13.3 158.34-11.25 161.04-11.25L161.04-11.25Q163.69-11.25 165.39-13.28 167.09-15.3 167.09-18.25L167.09-18.25Q167.09-21.45 165.41-23.58 163.74-25.7 161.04-25.7L161.04-25.7Q158.49-25.7 156.79-23.55 155.09-21.4 155.09-18.25Z" opacity="1" transform="matrix(1,0,0,1,0,0)" fill="#000000" class="wordmark-text-0" data-fill-palette-color="primary" id="text-0"></path></svg></g></svg></g></svg></g></svg></g><g transform="matrix(1,0,0,1,57.922516432098256,0)"><svg viewBox="0 0 76.15496713580349 83.88695458540873" height="83.88695458540873" width="76.15496713580349"><g><svg xmlns="http://www.w3.org/2000/svg" xmlns:xlink="http://www.w3.org/1999/xlink" version="1.1" x="0" y="0" viewBox="5.276 0.836 89.432 98.512" enable-background="new 0 0 100 100" xml:space="preserve" height="83.88695458540873" width="76.15496713580349" class="icon-icon-0" data-fill-palette-color="accent" id="icon-0"><g fill="#374151" data-fill-palette-color="accent"><path d="M61.741 41.632C61.883 42.328 61.867 43.062 61.666 43.761A4.3 4.3 0 0 1 60.652 45.549 4.275 4.275 0 0 1 54.655 45.632L46.35 37.532 45.029 39.023 53.345 47.128C55.611 49.33 59.721 49.553 61.955 47.295 62.724 46.503 63.388 44.838 63.616 43.801H81.615C83.974 43.801 86.31 46 86.31 48.347 86.31 50.715 84.861 52.965 81.615 52.965H51.401C49.879 52.921 48.165 52.326 46.845 51.205L28.219 37.151 5.276 37.091V21.795L38.925 21.851S41.151 21.899 42.686 22.79C44.103 23.617 45.359 24.824 45.359 24.824L60.556 39.579A4.3 4.3 0 0 1 61.741 41.632" fill="#000000" data-fill-palette-color="accent"></path><path d="M39.307 88.017A4.4 4.4 0 0 0 39.383 90.141C39.559 90.801 39.915 91.416 40.395 91.931 42.033 93.591 44.713 93.63 46.389 92.012L54.692 83.913 56.018 85.404 47.699 93.51C45.435 95.706 41.32 95.933 39.089 93.675 38.322 92.883 37.658 91.22 37.429 90.183H19.429C17.069 90.183 14.738 92.379 14.738 94.731 14.738 97.097 16.186 99.348 19.429 99.348H49.647C51.167 99.306 52.883 98.711 54.196 97.588L72.828 83.533 93.645 83.447V68.24H62.117S59.892 68.286 58.358 69.181C56.941 70.006 55.69 71.21 55.69 71.21L40.49 85.964A4.26 4.26 0 0 0 39.307 88.017" fill="#000000" data-fill-palette-color="accent"></path><path d="M14.346 70.311H16.744L16.776 70.457A10.1 10.1 0 0 0 19.025 74.917C20.724 76.771 23.153 77.794 25.867 77.794 28.175 77.794 30.05 77.153 31.006 76.575L30.547 72.944C29.701 73.337 28.263 73.717 26.81 73.717 25.113 73.717 23.768 73.188 22.817 72.143 22.349 71.678 22.083 71.056 21.903 70.567L21.81 70.311H29.458V67.986H21.29L21.274 67.813C21.235 67.368 21.235 67.126 21.235 66.842 21.235 66.638 21.235 66.273 21.274 65.907L21.292 65.734H29.458V63.447H21.833L21.898 63.21C22.08 62.523 22.42 61.888 22.85 61.418 23.793 60.389 25.149 59.845 26.773 59.845 28.341 59.845 29.447 60.25 29.996 60.513L30.952 56.831C30.356 56.54 28.743 55.886 26.338 55.886 23.473 55.886 20.886 56.967 19.057 58.93A10.5 10.5 0 0 0 16.776 63.304L16.739 63.448H14.381V65.735H16.402L16.382 65.945C16.344 66.295 16.347 66.684 16.347 66.923 16.347 67.001 16.351 67.095 16.36 67.2 16.37 67.363 16.382 67.558 16.382 67.798V67.986H14.348V70.311z" fill="#000000" data-fill-palette-color="accent"></path><path d="M75.604 0.836C65.066 0.836 56.494 9.406 56.494 19.941S65.066 39.05 75.604 39.05C86.138 39.05 94.708 30.476 94.708 19.941S86.138 0.836 75.604 0.836M75.601 36.101C66.692 36.101 59.444 28.852 59.444 19.94 59.444 11.034 66.692 3.786 75.601 3.786S91.759 11.034 91.759 19.94C91.759 28.852 84.512 36.101 75.601 36.101" fill="#000000" data-fill-palette-color="accent"></path><path d="M24.55 47.699C14.013 47.699 5.442 56.269 5.442 66.805 5.442 77.339 14.013 85.915 24.55 85.915 35.085 85.915 43.655 77.339 43.655 66.805 43.656 56.27 35.084 47.699 24.55 47.699M24.549 82.964C15.64 82.964 8.392 75.715 8.392 66.804 8.392 57.898 15.64 50.65 24.549 50.65S40.705 57.898 40.705 66.804C40.706 75.715 33.459 82.964 24.549 82.964" fill="#000000" data-fill-palette-color="accent"></path><g fill="#374151" data-fill-palette-color="accent"><path d="M74.049 32.526V29.595C72.086 29.503 70.182 28.915 69.069 28.27L69.949 24.659C71.179 25.369 72.909 26.017 74.814 26.017 76.511 26.017 77.653 25.308 77.653 24.103 77.653 22.931 76.715 22.192 74.518 21.42 71.383 20.312 69.246 18.769 69.246 15.779 69.246 13.034 71.063 10.906 74.197 10.289V7.361H77.069V10.073C79.001 10.136 80.318 10.597 81.344 11.091L80.468 14.577C79.733 14.204 78.357 13.497 76.246 13.497 74.341 13.497 73.725 14.393 73.725 15.253 73.725 16.24 74.75 16.918 77.27 17.875 80.758 19.171 82.134 20.867 82.134 23.671 82.134 26.418 80.317 28.76 76.946 29.347V32.526z" fill="#000000" data-fill-palette-color="accent"></path></g></g></svg></g></svg></g><g></g></svg></g></svg></g></svg></g></svg></g><defs></defs></svg><rect width="320" height="360" fill="none" stroke="none" visibility="hidden"></rect></g></svg></g></svg>